# xmcd CD database file
# Copyright (C) 1997 Ti Kan
#
# Track frame offsets:
#  155
#  20472
#  34237
#  51877
#  68120
#  81767
#  97912
#  118522
#  140565
#  156807
#  173807
#  193707
#
# Disc length: 2775 seconds
#
# Revision: 1
# Processed by: cddbd v1.4b41PL1 Copyright (c) Steve Scherf et al.
# Submitted via: CDWizzard Release:4.31
#
DISCID=9b0ad50c
DTITLE=Country Gospel Mix - Peace In The Valley
DYEAR=1900
DGENRE=
TTITLE0=Walkin' In Jerusalem
TTITLE1=House of Gold
TTITLE2=Morning Has Broken
TTITLE3=We're All God's Children
TTITLE4=Farther Along
TTITLE5=Peace In the Valley
TTITLE6=John the Revelator
TTITLE7=What A Friend We Have in Jesus
TTITLE8=Why Me, Lord?
TTITLE9='Aint Singin' That Song No More
TTITLE10=Oh Sacred Head Now Wounded
TTITLE11=People Get Ready
EXTD=
EXTT0=
EXTT1=
EXTT2=
EXTT3=
EXTT4=
EXTT5=
EXTT6=
EXTT7=
EXTT8=
EXTT9=
EXTT10=
EXTT11=
PLAYORDER=
